<svg width="54" height="59" viewBox="0 0 54 59" fill="none" xmlns="http://www.w3.org/2000/svg">
<path fill-rule="evenodd" clip-rule="evenodd" d="M44.9076 43.9717L8.84363 43.9717C7.67456 43.9717 6.71826 42.9286 6.71826 41.6534V41.4042C6.71826 40.129 7.67456 39.0859 8.84363 39.0859L44.9076 39.0859C46.0767 39.0859 47.0308 40.129 47.0308 41.4042V41.6534C47.0308 42.9286 46.0767 43.9717 44.9076 43.9717ZM8.84363 31.7573L44.9076 31.7573C46.0767 31.7573 47.0308 30.7142 47.0308 29.439V29.1898C47.0308 27.9147 46.0767 26.8715 44.9076 26.8715L8.84363 26.8715C7.67456 26.8715 6.71826 27.9147 6.71826 29.1898V29.439C6.71826 30.7142 7.67456 31.7573 8.84363 31.7573ZM8.84363 19.5429L44.9076 19.5429C46.0767 19.5429 47.0308 18.4998 47.0308 17.2246V16.9755C47.0308 15.7003 46.0767 14.6572 44.9076 14.6572L8.84363 14.6572C7.67456 14.6572 6.71826 15.7003 6.71826 16.9755V17.2246C6.71826 18.4998 7.67456 19.5429 8.84363 19.5429Z" fill="white"/>
</svg>
